<?xml version="1.0" encoding="UTF-8"?>
<!-- こかげアプリのロゴマーク(背景なし・原寸)。アプリが Android のアダプティブアイコン前景に
     使う版と同じ作画で、紙面用に viewBox を作画の範囲へ詰めてある。 -->
<svg xmlns="http://www.w3.org/2000/svg" width="562" height="706" viewBox="350 256 562 706">
  <defs>
    <linearGradient id="mint" x1="430" y1="945" x2="835" y2="272" gradientUnits="userSpaceOnUse">
      <stop offset="0" stop-color="#a8d2c2"/>
      <stop offset=".5" stop-color="#aad3c3"/>
      <stop offset="1" stop-color="#aad3c4"/>
    </linearGradient>
  </defs>
  <path fill="#2d4d42" d="
    M 430 945
    C 520 890 666 813 785 799
    C 806 797 825 803 844 810
    C 865.3 817.3 885.1 826.3 893 847
    C 897 876.1 873.9 886.5 857 898
    C 815.9 918.9 763 928 708 935
    C 627.9 942.9 539.9 942.9 455 946
    Z
  "/>
  <path fill="url(#mint)" d="
    M 835 271
    C 831.2 375.9 783.1 436.4 698 460
    C 819.5 471.9 880.4 544.3 891 667
    C 884.6 793.6 818.1 860.1 700 875
    C 663.6 877.3 623 875.4 585 876
    C 528.5 888.5 502.4 931.4 447 945
    C 435.6 947.4 428.1 941.7 432 932
    C 439.5 906.5 453.2 887.2 457 858
    C 449.3 834.4 425.6 826.7 413 808
    C 401 791 389.3 773.7 381 753
    C 372.4 731.9 366.5 708.1 365 680
    C 363.4 648.4 368.6 623.6 375 600
    C 386.2 569.8 401.3 543.7 421 522
    C 442.9 500.3 467 480.6 500 470
    C 518.3 462.6 539.2 457.8 565 458
    C 601.7 457 622.9 471.4 636 494
    C 626.5 347.5 698.4 274.7 835 271
    Z
  "/>
  <path fill="url(#mint)" d="
    M 505 339
    C 583.3 343.7 633.4 381.9 629 466
    C 604.2 458.5 582.1 448.2 561 437
    C 531.4 415.3 507.1 388.3 505 339
    Z
  "/>
  <path fill="#fdf2e1" d="
    M 782 329
    C 739.5 362.2 698.5 396.9 664 438
    C 684.2 390.5 729.3 350.7 782 329
    Z
  "/>
</svg>
